<svg xmlns="http://www.w3.org/2000/svg" version="1.1" xmlns:xlink="http://www.w3.org/1999/xlink" xmlns:svgjs="http://svgjs.dev/svgjs" width="100%" height="100%" viewBox="0 0 1000 600"><rect width="1000" height="600" x="0" y="0" fill="#000000"/><g><circle r="166.66666666666666" cx="449.54166666666663" cy="471.7638903452555" fill="#ffffff" transform="matrix(0.4418912947414936,0,0,0.4418912947414936,0,91.53164436350445)"/><path d="M460.27083651206755 471.7638902883073L460.27083651206755 546.7638880176543L438.84226573225413 546.7638880176543L438.84226573225413 471.7638902883073Q438.84226573225413 456.9722240694639 431.63988499792794 444.7698434865146Q424.46726616746264 432.53770099970444 412.26488558451337 425.36508216923914Q400.0327430977032 418.1924633387738 385.2708387827206 418.1924633387738L385.2708387827206 418.1924633387738L373.6934581808492 418.1924633387738L373.6934581808492 546.7638880176543L352.26488740103576 546.7638880176543L352.26488740103576 396.7638925589604L385.2708387827206 396.7638925589604Q405.6279810235433 396.7638925589604 422.65179003195067 406.82341606392833Q439.675599040358 416.91270147275713 449.55655112216084 433.1924628846432L449.55655112216084 433.1924628846432Q459.4077413001028 416.91270147275713 476.43155030851017 406.82341606392833Q493.48512122077835 396.7638925589604 513.8422634616011 396.7638925589604L513.8422634616011 396.7638925589604L546.818452939425 396.7638925589604L546.818452939425 546.7638880176543L525.3898821596117 546.7638880176543L525.3898821596117 418.1924633387738L513.8422634616011 418.1924633387738Q499.05059724275765 418.1924633387738 486.9375023713909 425.36508216923914Q474.82440750002417 432.53770099970444 467.53274105411543 444.7698434865146Q460.27083651206755 456.9722240694639 460.27083651206755 471.7638902883073L460.27083651206755 471.7638902883073Z " fill="#fffffff" transform="matrix(0.4418912947414936,0,0,0.4418912947414936,0,91.53164436350445)"/><path d="M800.3472221692401 476.76389183235153L800.3472221692401 546.7638918323515L780.3472221692401 546.7638918323515L780.3472221692401 476.76389183235153Q780.3472221692401 462.958336276796 773.624999947018 451.5694473879071Q766.9305555025734 440.1527807212404 755.5416666136846 433.458336276796Q744.124999947018 426.76389183235153 730.3472221692401 426.76389183235153L730.3472221692401 426.76389183235153L719.5416666136845 426.76389183235153L719.5416666136845 546.7638918323515L699.5416666136845 546.7638918323515L699.5416666136845 406.76389183235153L730.3472221692401 406.76389183235153Q749.3472221692401 406.76389183235153 765.236111058129 416.15278072124045Q781.124999947018 425.5694473879071 790.3472221692401 440.76389183235153L790.3472221692401 440.76389183235153Q799.5416666136845 425.5694473879071 815.4305555025734 416.15278072124045Q831.3472221692401 406.76389183235153 850.3472221692401 406.76389183235153L850.3472221692401 406.76389183235153L881.124999947018 406.76389183235153L881.124999947018 546.7638918323515L861.124999947018 546.7638918323515L861.124999947018 426.76389183235153L850.3472221692401 426.76389183235153Q836.5416666136845 426.76389183235153 825.236111058129 433.458336276796Q813.9305555025734 440.1527807212404 807.124999947018 451.5694473879071Q800.3472221692401 462.958336276796 800.3472221692401 476.76389183235153L800.3472221692401 476.76389183235153ZM1037.5416666136848 471.76389183235153L1037.5416666136848 546.7638918323515L937.5416666136847 546.7638918323515Q927.9305555025734 546.7638918323515 919.9305555025734 542.0694473879071Q911.9305555025734 537.3750029434626 907.236111058129 529.458336276796Q902.5416666136845 521.5694473879071 902.5416666136845 511.76389183235153L902.5416666136845 511.76389183235153Q902.5416666136845 501.958336276796 907.236111058129 494.0694473879071Q911.9305555025734 486.15278072124045 919.9305555025734 481.458336276796Q927.9305555025734 476.76389183235153 937.5416666136847 476.76389183235153L937.5416666136847 476.76389183235153L1007.5416666136847 476.76389183235153L1007.5416666136847 496.76389183235153L937.5416666136847 496.76389183235153Q931.3472221692401 496.76389183235153 926.9305555025734 501.15278072124045Q922.5416666136845 505.5694473879071 922.5416666136845 511.76389183235153L922.5416666136845 511.76389183235153Q922.5416666136845 517.958336276796 926.9305555025734 522.3750029434626Q931.3472221692401 526.7638918323515 937.5416666136847 526.7638918323515L937.5416666136847 526.7638918323515L1017.5416666136847 526.7638918323515L1017.5416666136847 471.76389183235153Q1017.5416666136847 465.5694473879071 1013.124999947018 461.15278072124045Q1008.736111058129 456.76389183235153 1002.5416666136847 456.76389183235153L1002.5416666136847 456.76389183235153L922.5416666136845 456.76389183235153L922.5416666136845 436.76389183235153L1002.5416666136847 436.76389183235153Q1012.3472221692401 436.76389183235153 1020.236111058129 441.458336276796Q1028.1249999470178 446.15278072124045 1032.84722216924 454.0694473879071Q1037.5416666136848 461.958336276796 1037.5416666136848 471.76389183235153L1037.5416666136848 471.76389183235153ZM1195.1249999470178 491.76389183235153L1195.1249999470178 491.76389183235153Q1195.1249999470178 503.15278072124045 1190.9305555025735 513.0694473879071Q1186.7361110581292 522.958336276796 1179.2361110581292 530.5694473879071Q1171.7361110581292 538.1527807212404 1161.84722216924 542.458336276796Q1151.9305555025735 546.7638918323515 1140.5416666136848 546.7638918323515L1140.5416666136848 546.7638918323515L1065.5416666136848 546.7638918323515L1065.5416666136848 396.76389183235153L1085.5416666136848 396.76389183235153L1085.5416666136848 526.7638918323515L1140.5416666136848 526.7638918323515Q1150.1249999470178 526.7638918323515 1158.0416666136848 521.958336276796Q1165.9305555025735 517.1527807212404 1170.5416666136848 509.26389183235153Q1175.1249999470178 501.3750029434626 1175.1249999470178 491.76389183235153L1175.1249999470178 491.76389183235153Q1175.1249999470178 482.15278072124045 1170.5416666136848 474.26389183235153Q1165.9305555025735 466.3750029434626 1158.0416666136848 461.5694473879071Q1150.1249999470178 456.76389183235153 1140.5416666136848 456.76389183235153L1140.5416666136848 456.76389183235153L1095.5416666136848 456.76389183235153L1095.5416666136848 436.76389183235153L1140.5416666136848 436.76389183235153Q1151.9305555025735 436.76389183235153 1161.84722216924 441.0694473879071Q1171.7361110581292 445.3750029434626 1179.2361110581292 452.958336276796Q1186.7361110581292 460.5694473879071 1190.9305555025735 470.458336276796Q1195.1249999470178 480.3750029434626 1195.1249999470178 491.76389183235153ZM1395.1249999470178 476.76389183235153L1395.1249999470178 546.7638918323515L1375.1249999470178 546.7638918323515L1375.1249999470178 476.76389183235153Q1375.1249999470178 462.958336276796 1368.4305555025735 451.5694473879071Q1361.7361110581292 440.1527807212404 1350.3472221692405 433.458336276796Q1338.9305555025735 426.76389183235153 1325.1249999470178 426.76389183235153L1325.1249999470178 426.76389183235153L1314.3472221692405 426.76389183235153L1314.3472221692405 546.7638918323515L1294.34722216924 546.7638918323515L1294.34722216924 406.76389183235153L1325.1249999470178 406.76389183235153Q1344.1249999470178 406.76389183235153 1360.0416666136848 416.15278072124045Q1375.9305555025735 425.5694473879071 1385.1249999470183 440.76389183235153L1385.1249999470183 440.76389183235153Q1394.3472221692405 425.5694473879071 1410.2361110581292 416.15278072124045Q1426.1249999470178 406.76389183235153 1445.1249999470178 406.76389183235153L1445.1249999470178 406.76389183235153L1475.9305555025735 406.76389183235153L1475.9305555025735 546.7638918323515L1455.9305555025735 546.7638918323515L1455.9305555025735 426.76389183235153L1445.1249999470178 426.76389183235153Q1431.3472221692405 426.76389183235153 1420.0416666136848 433.458336276796Q1408.7361110581292 440.1527807212404 1401.9305555025735 451.5694473879071Q1395.1249999470178 462.958336276796 1395.1249999470178 476.76389183235153L1395.1249999470178 476.76389183235153ZM1635.1249999470183 471.76389183235153L1635.1249999470183 471.76389183235153Q1635.1249999470183 481.3750029434626 1630.4305555025735 489.3750029434627Q1625.7361110581292 497.3750029434626 1617.8472221692405 502.0694473879071Q1609.9305555025735 506.76389183235153 1600.1249999470178 506.76389183235153L1600.1249999470178 506.76389183235153L1523.5416666136848 506.76389183235153Q1527.7361110581292 515.5694473879071 1536.0416666136848 521.1527807212404Q1544.3472221692405 526.7638918323515 1554.7361110581292 526.7638918323515L1554.7361110581292 526.7638918323515L1620.1249999470178 526.7638918323515L1620.1249999470178 546.7638918323515L1554.7361110581292 546.7638918323515Q1543.3472221692405 546.7638918323515 1533.4305555025735 542.458336276796Q1523.5416666136848 538.1527807212404 1516.0416666136848 530.5694473879071Q1508.5416666136848 522.958336276796 1504.3472221692405 513.0694473879071Q1500.1249999470178 503.15278072124045 1500.1249999470178 491.76389183235153L1500.1249999470178 491.76389183235153Q1500.1249999470178 480.3750029434626 1504.3472221692405 470.458336276796Q1508.5416666136848 460.5694473879071 1516.0416666136848 452.958336276796Q1523.5416666136848 445.3750029434626 1533.4305555025735 441.0694473879071Q1543.3472221692405 436.76389183235153 1554.7361110581292 436.76389183235153L1554.7361110581292 436.76389183235153L1600.1249999470178 436.76389183235153Q1609.9305555025735 436.76389183235153 1617.8472221692405 441.458336276796Q1625.7361110581292 446.15278072124045 1630.4305555025735 454.0694473879071Q1635.1249999470183 461.958336276796 1635.1249999470183 471.76389183235153ZM1520.5416666136848 486.76389183235153L1600.1249999470178 486.76389183235153Q1606.3472221692405 486.76389183235153 1610.7361110581292 482.3750029434626Q1615.1249999470183 477.958336276796 1615.1249999470183 471.76389183235153L1615.1249999470183 471.76389183235153Q1615.1249999470183 465.5694473879071 1610.7361110581292 461.15278072124045Q1606.3472221692405 456.76389183235153 1600.1249999470178 456.76389183235153L1600.1249999470178 456.76389183235153L1554.7361110581292 456.76389183235153Q1545.9305555025735 456.76389183235153 1538.6249999470183 460.76389183235153Q1531.3472221692405 464.76389183235153 1526.5416666136848 471.5694473879071Q1521.7361110581292 478.3750029434626 1520.5416666136848 486.76389183235153L1520.5416666136848 486.76389183235153ZM1777.3472221692405 396.76389183235153L1777.3472221692405 546.7638918323515L1757.3472221692405 546.7638918323515L1757.3472221692405 456.76389183235153L1702.3472221692405 456.76389183235153Q1692.7361110581292 456.76389183235153 1684.9305555025735 461.458336276796Q1677.1249999470183 466.15278072124045 1672.4305555025735 474.15278072124045Q1667.7361110581292 482.15278072124045 1667.7361110581292 491.76389183235153L1667.7361110581292 491.76389183235153Q1667.7361110581292 501.3750029434626 1672.4305555025735 509.26389183235153Q1677.1249999470183 517.1527807212404 1684.9305555025735 521.8750029434626Q1692.7361110581292 526.5694473879071 1702.3472221692405 526.7638918323515L1702.3472221692405 526.7638918323515L1747.3472221692405 526.7638918323515L1747.3472221692405 546.7638918323515L1702.3472221692405 546.7638918323515Q1690.9305555025735 546.7638918323515 1681.0416666136848 542.458336276796Q1671.1249999470178 538.1527807212404 1663.6249999470183 530.5694473879071Q1656.1249999470183 522.958336276796 1651.9305555025735 513.0694473879071Q1647.7361110581292 503.15278072124045 1647.7361110581292 491.76389183235153L1647.7361110581292 491.76389183235153Q1647.7361110581292 480.3750029434626 1651.9305555025735 470.458336276796Q1656.1249999470183 460.5694473879071 1663.6249999470183 452.958336276796Q1671.1249999470178 445.3750029434626 1681.0416666136848 441.0694473879071Q1690.9305555025735 436.76389183235153 1702.3472221692405 436.76389183235153L1702.3472221692405 436.76389183235153L1757.3472221692405 436.76389183235153L1757.3472221692405 396.76389183235153L1777.3472221692405 396.76389183235153ZM1831.1249999470183 411.76389183235153L1831.1249999470183 411.76389183235153Q1831.1249999470183 417.958336276796 1826.7361110581292 422.3750029434626Q1822.3472221692405 426.76389183235153 1816.1249999470183 426.76389183235153L1816.1249999470183 426.76389183235153Q1809.930555502574 426.76389183235153 1805.5416666136848 422.3750029434626Q1801.1249999470183 417.958336276796 1801.1249999470183 411.76389183235153L1801.1249999470183 411.76389183235153Q1801.1249999470183 405.5694473879071 1805.5416666136848 401.15278072124045Q1809.930555502574 396.76389183235153 1816.1249999470183 396.76389183235153L1816.1249999470183 396.76389183235153Q1822.3472221692405 396.76389183235153 1826.7361110581292 401.15278072124045Q1831.1249999470183 405.5694473879071 1831.1249999470183 411.76389183235153ZM1826.1249999470183 436.76389183235153L1826.1249999470183 546.7638918323515L1806.1249999470183 546.7638918323515L1806.1249999470183 436.76389183235153L1826.1249999470183 436.76389183235153ZM1980.1249999470183 471.76389183235153L1980.1249999470183 546.7638918323515L1880.1249999470183 546.7638918323515Q1870.5416666136848 546.7638918323515 1862.5416666136848 542.0694473879071Q1854.5416666136848 537.3750029434626 1849.8472221692405 529.458336276796Q1845.1249999470183 521.5694473879071 1845.1249999470183 511.76389183235153L1845.1249999470183 511.76389183235153Q1845.1249999470183 501.958336276796 1849.8472221692405 494.0694473879071Q1854.5416666136848 486.15278072124045 1862.5416666136848 481.458336276796Q1870.5416666136848 476.76389183235153 1880.1249999470183 476.76389183235153L1880.1249999470183 476.76389183235153L1950.1249999470183 476.76389183235153L1950.1249999470183 496.76389183235153L1880.1249999470183 496.76389183235153Q1873.9305555025735 496.76389183235153 1869.5416666136848 501.15278072124045Q1865.1249999470183 505.5694473879071 1865.1249999470183 511.76389183235153L1865.1249999470183 511.76389183235153Q1865.1249999470183 517.958336276796 1869.5416666136848 522.3750029434626Q1873.9305555025735 526.7638918323515 1880.1249999470183 526.7638918323515L1880.1249999470183 526.7638918323515L1960.1249999470183 526.7638918323515L1960.1249999470183 471.76389183235153Q1960.1249999470183 465.5694473879071 1955.7361110581292 461.15278072124045Q1951.3472221692405 456.76389183235153 1945.1249999470183 456.76389183235153L1945.1249999470183 456.76389183235153L1865.1249999470183 456.76389183235153L1865.1249999470183 436.76389183235153L1945.1249999470183 436.76389183235153Q1954.930555502574 436.76389183235153 1962.8472221692405 441.458336276796Q1970.7361110581296 446.15278072124045 1975.430555502574 454.0694473879071Q1980.1249999470183 461.958336276796 1980.1249999470183 471.76389183235153L1980.1249999470183 471.76389183235153Z " fill="#ffffff" transform="matrix(0.4418912947414936,0,0,0.4418912947414936,0,91.53164436350445)"/></g></svg>